<svg version="1.2" xmlns="http://www.w3.org/2000/svg" viewBox="0 0 1547 593" width="1547" height="593">
	<title>header-bd-logo-svg</title>
	<style>
		.s0 { fill: #ffffff } 
		.s1 { fill: #044ed7 } 
		.s2 { fill: #ff6e00 } 
	</style>
	<path id="Layer" class="s0" d="m593.3 296.4c0 58.6-17.4 116-50 164.7-32.6 48.8-78.9 86.7-133 109.2-54.2 22.4-113.8 28.3-171.3 16.9-57.4-11.5-110.3-39.7-151.7-81.2-41.5-41.4-69.7-94.2-81.1-151.7-11.5-57.5-5.6-117.1 16.8-171.3 22.5-54.2 60.5-100.5 109.2-133 48.7-32.6 106-50 164.7-50 38.9 0 77.4 7.7 113.4 22.6 35.9 14.9 68.6 36.7 96.1 64.2 27.6 27.5 49.4 60.2 64.3 96.2 14.9 36 22.6 74.5 22.6 113.4z"/>
	<path id="Layer" fill-rule="evenodd" class="s1" d="m964.3 518h-163.6c-4.7 0-9.4-1-13.7-2.8-4.4-1.8-8.3-4.5-11.6-7.9-3.3-3.4-5.8-7.4-7.5-11.8-1.7-4.4-2.5-9.1-2.4-13.9v-369.5c0-4.6 0.9-9.2 2.6-13.5 1.7-4.3 4.3-8.2 7.6-11.5 3.3-3.2 7.2-5.8 11.5-7.5 4.3-1.8 8.9-2.6 13.5-2.5h152.9c84.1 0 134.4 48.9 134.4 112.3 0 63.5-39.2 87.6-52.9 92.1 21.1 5.4 78.8 29.2 78.8 110.2 0 68.9-55.6 126.3-149.6 126.3zm-13.7-376.1h-114.1v111.2h114.1c45.2 0 66.5-25.1 66.5-55.6 0-30.5-20-55.6-66.5-55.6zm16.2 175.1h-130.3v135.5h130.3c52.2 0 76.2-33.9 76.2-67.6 0-33.7-23.7-67.6-76.2-67.6zm350.2 200.7h-107.8c-4.8 0.1-9.5-0.8-13.9-2.6-4.4-1.7-8.4-4.4-11.7-7.8-3.4-3.3-6-7.4-7.8-11.8-1.7-4.4-2.5-9.1-2.4-13.9v-369.5c0-4.7 0.9-9.3 2.8-13.6 1.8-4.3 4.4-8.2 7.7-11.4 3.4-3.3 7.3-5.9 11.6-7.6 4.4-1.7 9-2.5 13.7-2.4h108.5c147.1 0 229.2 98 229.2 220.3 0 122.4-82.9 220.6-229.2 220.6zm-3.6-375.8h-68.4v310.5h68.4c104.2 0 162.3-61.6 162.3-155.5 0-94-57.4-155-162.3-155z"/>
	<path id="Layer" fill-rule="evenodd" class="s2" d="m169.9 281.7l-167 57.1c-1.9-13.8-2.9-27.6-2.9-41.5 0-41.8 8.8-83.1 26-121.3l144.4 102.2c0.9 0.7 1.4 1.3 1.4 1.9 0 0.6-0.9 1.6-1.9 1.9zm91.8-105.7c-0.3 1.9-1.1 1.9-1.8 1.9-0.7 0-1.3-0.4-2.2-1.3l-121.3-128.4c47.2-30.3 102.1-46.4 158.1-46.4 0 0-31.8 166-32.8 174.2zm-60.4 39.4q-0.2 0.3-0.4 0.5-0.2 0.2-0.5 0.3-0.3 0.1-0.6 0.1h-1.5l-171.4-42.5c23.4-50.8 60.7-93.9 107.6-124.5l66.9 164.1q0.1 0.7 0 1.4 0 0.4-0.1 0.6zm218 64.7c0-0.6 0.4-1.2 1.3-1.9l144.6-102.2c17.1 38.2 25.9 79.5 25.8 121.3 0.1 13.9-0.9 27.7-2.8 41.5l-167-57.1c-0.9-0.3-1.9-1-1.9-1.6zm-122.6-278.3c56 0.1 110.8 16.2 158 46.4l-121.4 128.4c-0.7 1.3-1.3 1.3-2 1.3-0.8 0-1.9-0.4-1.9-1.9-1.5-8.2-32.7-174.2-32.7-174.2zm93.6 214.2c-0.2-0.3-0.4-0.6-0.4-1q0-0.7 0-1.5c0.5-0.7 66.6-164 66.6-164 46.9 30.5 84.2 73.7 107.7 124.5l-171.5 42.4h-1.5c-0.3 0-0.7-0.2-0.9-0.4z"/>
	<path id="Layer" class="s2" d="m295.2 592.8c-70.6-0.1-138.8-25.4-192.4-71.5-53.5-46.1-88.8-109.8-99.4-179.6l110.6 15.4c0.6 0.1 1.3 0.3 1.8 0.7 0.5 0.4 0.8 1 1 1.7 10.9 31.6 30 59.8 55.3 81.6 25.3 21.9 56 36.7 88.8 42.9-15.8-7.8-28.6-20.6-36.3-36.6-7.6-15.9-9.6-34-5.6-51.2 4-17.2 13.7-32.6 27.5-43.6 13.8-10.9 30.9-16.9 48.6-16.9 17.6 0 34.8 6 48.6 16.9 13.8 11 23.5 26.4 27.5 43.6 3.9 17.2 1.9 35.3-5.7 51.2-7.6 16-20.4 28.8-36.3 36.6 33.1-6.1 64-20.8 89.5-42.6 25.5-21.9 44.7-50.2 55.7-81.9 0.1-0.7 0.5-1.3 1-1.7 0.5-0.4 1.1-0.7 1.8-0.7l110.2-15.4c-10.7 69.8-46 133.5-99.5 179.5-53.5 46.1-121.8 71.5-192.4 71.6"/>
</svg>